<svg width="126" height="58" viewBox="0 0 126 58" fill="none" xmlns="http://www.w3.org/2000/svg">
<path d="M31.4966 13.8878C31.135 13.8671 30.894 13.8425 30.6519 13.8425C21.6456 13.8425 12.64 13.8425 3.63507 13.8425H3.18311C2.51121 13.8425 2.50819 13.8425 2.50819 13.2016C2.50819 11.4294 2.50819 9.65722 2.50819 7.88505C2.50819 5.83623 2.51824 3.78643 2.49916 1.73662C2.49916 1.31622 2.60863 1.17248 3.06159 1.17347C15.649 1.18725 28.2375 1.16165 40.8249 1.21285C43.2585 1.2227 45.6066 1.7888 47.5661 3.35225C49.0535 4.53369 49.7656 6.10896 49.8761 7.97072C50.0137 10.2588 49.2735 12.3332 48.0341 14.1881C46.628 16.293 45.0743 18.3172 43.4824 20.2922C38.8116 26.101 33.9592 31.7617 28.9255 37.2745C27.7313 38.581 26.515 39.8707 25.3098 41.1683C25.1705 41.3027 25.0736 41.4736 25.0306 41.6606C25.6985 41.571 26.3694 41.4981 27.0333 41.3879C30.5023 40.8119 33.9813 40.2852 37.4353 39.6305C42.216 38.7247 46.9766 37.7205 51.7452 36.7576C52.0354 36.6985 52.2232 36.6139 52.2654 36.2358C52.9032 30.4447 53.8171 24.701 55.5657 19.1157C56.7709 15.2632 58.3266 11.5643 60.709 8.24638C62.9416 5.13426 65.7367 2.68473 69.4166 1.31622C72.283 0.249966 75.2539 0.00481527 78.29 0.28147C81.6767 0.590615 84.7098 1.75829 87.3843 3.81105C89.9324 5.76634 91.8215 8.25131 93.3592 11.01C95.4904 14.831 96.8242 18.9394 97.8787 23.1474C97.897 23.2269 97.9195 23.3054 97.946 23.3827C97.9561 23.4102 97.9892 23.4299 98.0635 23.5077C105.356 20.9479 112.579 18.1256 119.732 15.0407C121.5 18.9581 123.247 22.8303 125.018 26.7567C124.289 27.0737 123.592 27.3799 122.893 27.6802C115.575 30.8208 108.116 33.6031 100.557 36.1334C100.156 36.2693 100.068 36.4691 100.101 36.8501C100.281 38.8872 100.475 40.9232 100.594 42.9631C100.74 45.4629 100.839 47.9666 100.918 50.4692C100.978 52.3517 100.968 54.2371 101.01 56.1195C101.018 56.5074 100.893 56.6315 100.498 56.6295C96.33 56.6197 92.162 56.6197 87.994 56.6295C87.5491 56.6295 87.4757 56.4464 87.4727 56.0693C87.4516 53.5794 87.4466 51.0875 87.3723 48.5986C87.2899 45.9827 87.1323 43.3678 87.0057 40.7529C86.9907 40.6559 86.9686 40.5602 86.9394 40.4664C86.2012 40.678 85.4871 40.8927 84.768 41.0866C78.3663 42.8135 71.963 44.5361 65.5579 46.2545C65.2064 46.3529 65.0327 46.4622 65.0266 46.8639C64.9824 49.9593 64.9041 53.0537 64.8549 56.1491C64.8549 56.5183 64.7283 56.6285 64.3618 56.6275C60.1763 56.6177 55.9915 56.6177 51.8074 56.6275C51.4308 56.6275 51.3133 56.4927 51.3203 56.1353C51.3595 54.0874 51.3796 52.0396 51.4158 49.9918C51.4218 49.6393 51.2802 49.5822 50.9528 49.6521C47.9879 50.2842 45.0271 50.932 42.0502 51.5227C37.8501 52.353 33.6442 53.1551 29.4327 53.9289C25.8271 54.5856 22.2114 55.195 18.5918 55.7828C15.7294 56.2465 12.862 56.6905 9.98454 57.0538C8.34846 57.2606 6.71439 57.1011 5.16368 56.4631C1.84332 55.0946 0.275537 51.8358 1.29896 48.4332C1.9769 46.1777 3.39804 44.3966 5.05421 42.7662C7.56507 40.2872 10.1352 37.8632 12.5496 35.2975C16.9841 30.5855 21.3621 25.8237 25.6834 21.0119C27.5736 18.9119 29.284 16.6573 31.0748 14.4706C31.1983 14.3249 31.3088 14.1497 31.4966 13.8878ZM65.9315 33.2832C66.1856 33.2399 66.3433 33.2261 66.495 33.1847C68.7317 32.5851 70.9784 32.0171 73.201 31.3722C77.1541 30.2262 81.0911 29.031 85.0382 27.8662C85.3746 27.7678 85.5715 27.6447 85.4721 27.2558C84.9388 25.1814 84.4928 23.0834 83.8651 21.0355C83.1942 18.8311 82.229 16.7459 80.6512 14.9826C78.1735 12.217 74.365 12.1452 71.813 14.8339C70.2984 16.4279 69.4026 18.3596 68.6664 20.3759C67.7032 23.0341 67.0896 25.7761 66.6436 28.5564C66.3956 30.1051 66.1766 31.6538 65.9315 33.2861V33.2832Z" fill="#FFECE2"/>
</svg>
