<svg width="175" height="83" viewBox="0 0 175 83" fill="none" xmlns="http://www.w3.org/2000/svg">
<path d="M43.3226 20.5094C42.8135 20.4798 42.4741 20.4445 42.1333 20.4445C29.4525 20.4445 16.7727 20.4445 4.09379 20.4445H3.45744C2.5114 20.4445 2.50716 20.4445 2.50716 19.527C2.50716 16.9902 2.50716 14.4534 2.50716 11.9166C2.50716 8.98378 2.5213 6.04955 2.49443 3.11531C2.49443 2.51352 2.64857 2.30776 3.28633 2.30917C21.0094 2.3289 38.7338 2.29226 56.4568 2.36555C59.8832 2.37964 63.1894 3.19001 65.9483 5.42804C68.0426 7.11924 69.0452 9.37419 69.2008 12.0392C69.3945 15.3145 68.3523 18.284 66.6073 20.9392C64.6275 23.9524 62.4399 26.85 60.1985 29.6771C53.622 37.9922 46.79 46.0954 39.7025 53.9867C38.0211 55.8569 36.3086 57.7032 34.6117 59.5607C34.4155 59.7531 34.279 59.9977 34.2185 60.2653C35.1589 60.1371 36.1035 60.0328 37.0383 59.875C41.9226 59.0505 46.8211 58.2965 51.6842 57.3593C58.4154 56.0627 65.1182 54.6252 71.8324 53.2468C72.2411 53.1623 72.5055 53.0411 72.5649 52.4999C73.4629 44.2102 74.7497 35.9881 77.2117 27.9929C78.9086 22.4782 81.0991 17.1833 84.4533 12.4338C87.5969 7.97893 91.5324 4.4725 96.7137 2.51352C100.75 0.987208 104.932 0.636281 109.207 1.03231C113.976 1.47484 118.246 3.14632 122.012 6.08479C125.6 8.88374 128.26 12.4409 130.425 16.3899C133.425 21.8595 135.303 27.7407 136.788 33.7642C136.814 33.878 136.845 33.9904 136.883 34.101C136.897 34.1405 136.944 34.1686 137.048 34.28C147.316 30.6157 157.485 26.5756 167.558 22.1597C170.047 27.7674 172.507 33.3104 175 38.9308C173.973 39.3846 172.992 39.8229 172.008 40.2528C161.705 44.7485 151.202 48.7313 140.56 52.3533C139.994 52.5478 139.871 52.8339 139.917 53.3793C140.171 56.2952 140.444 59.2097 140.612 62.1299C140.817 65.7082 140.955 69.2921 141.067 72.8747C141.152 75.5693 141.138 78.2682 141.197 80.9629C141.209 81.5181 141.032 81.6957 140.476 81.6929C134.608 81.6788 128.739 81.6788 122.87 81.6929C122.244 81.6929 122.141 81.4308 122.136 80.891C122.107 77.3268 122.1 73.7597 121.995 70.1969C121.879 66.4523 121.657 62.7091 121.479 58.9659C121.458 58.8272 121.427 58.6901 121.386 58.5558C120.346 58.8588 119.341 59.1661 118.328 59.4437C109.315 61.9157 100.299 64.3816 91.2807 66.8413C90.7857 66.9822 90.5411 67.1387 90.5326 67.7137C90.4704 72.1446 90.3601 76.5742 90.2908 81.0052C90.2908 81.5337 90.1126 81.6915 89.5965 81.6901C83.7034 81.676 77.8113 81.676 71.9201 81.6901C71.3898 81.6901 71.2243 81.497 71.2343 80.9854C71.2894 78.054 71.3177 75.1226 71.3686 72.1912C71.3771 71.6866 71.1777 71.6049 70.7167 71.7049C66.5422 72.6097 62.3734 73.5371 58.182 74.3827C52.2682 75.5712 46.3464 76.7194 40.4166 77.8271C35.3399 78.7671 30.2491 79.6395 25.1527 80.4809C21.1225 81.1447 17.0852 81.7803 13.0338 82.3003C10.7302 82.5963 8.42944 82.368 6.24606 81.4547C1.57102 79.4957 -0.636405 74.8308 0.804571 69.9602C1.75909 66.7314 3.76006 64.1819 6.09192 61.848C9.62719 58.2993 13.2459 54.8295 16.6454 51.1568C22.8892 44.4117 29.0533 37.5952 35.1377 30.7073C37.7991 27.7012 40.2073 24.4738 42.7286 21.3437C42.9026 21.1351 43.0581 20.8842 43.3226 20.5094ZM91.8067 48.2733C92.1645 48.2113 92.3865 48.1916 92.6 48.1324C95.7492 47.2741 98.9126 46.4609 102.042 45.5378C107.608 43.8973 113.151 42.1864 118.709 40.5191C119.182 40.3782 119.46 40.202 119.32 39.6453C118.569 36.6758 117.941 33.6726 117.057 30.7411C116.112 27.5856 114.753 24.6007 112.532 22.0765C109.043 18.1177 103.681 18.0148 100.088 21.8637C97.9552 24.1454 96.6939 26.9106 95.6573 29.7969C94.3012 33.6021 93.4372 37.5271 92.8093 41.5071C92.46 43.724 92.1517 45.9408 91.8067 48.2775V48.2733Z" fill="white"/>
</svg>
