<svg width="265" height="124" viewBox="0 0 265 124" fill="none" xmlns="http://www.w3.org/2000/svg">
<path d="M65.8936 30.35C65.1238 30.3052 64.6106 30.2519 64.0953 30.2519C44.921 30.2519 25.7481 30.2519 6.57661 30.2519H5.61441C4.18392 30.2519 4.17751 30.2519 4.17751 28.8646C4.17751 25.0288 4.17751 21.1929 4.17751 17.3571C4.17751 12.9224 4.19889 8.48561 4.15826 4.04881C4.15826 3.13886 4.39133 2.82774 5.35568 2.82987C32.1543 2.85971 58.955 2.80431 85.7535 2.91512C90.9345 2.93643 95.9337 4.16177 100.105 7.54584C103.272 10.1031 104.788 13.5127 105.023 17.5425C105.316 22.495 103.74 26.985 101.102 30.9999C98.1083 35.556 94.8004 39.9374 91.4113 44.2123C81.4671 56.7853 71.1365 69.038 60.4197 80.9703C57.8773 83.7982 55.2879 86.5899 52.722 89.3986C52.4253 89.6895 52.219 90.0594 52.1276 90.4641C53.5495 90.2702 54.9778 90.1125 56.3912 89.8738C63.7767 88.6271 71.1836 87.487 78.537 86.0699C88.715 84.1094 98.8503 81.9357 109.003 79.8516C109.621 79.7237 110.02 79.5404 110.11 78.7221C111.468 66.1874 113.414 53.755 117.137 41.6657C119.702 33.327 123.015 25.3207 128.086 18.1392C132.84 11.403 138.79 6.10099 146.625 3.13886C152.728 0.830959 159.052 0.300331 165.516 0.89915C172.727 1.56829 179.184 4.09571 184.878 8.5389C190.303 12.7711 194.325 18.1498 197.599 24.121C202.136 32.3915 204.975 41.2842 207.221 50.3922C207.26 50.5644 207.307 50.7344 207.364 50.9016C207.385 50.9612 207.456 51.0039 207.614 51.1722C223.139 45.6315 238.517 39.5226 253.747 32.8454C257.51 41.3247 261.23 49.7061 265 58.2046C263.448 58.8908 261.964 59.5535 260.476 60.2035C244.896 67.0015 229.016 73.0238 212.923 78.5005C212.068 78.7946 211.882 79.2272 211.953 80.0519C212.335 84.461 212.748 88.8679 213.002 93.2834C213.312 98.6941 213.522 104.113 213.691 109.53C213.819 113.605 213.798 117.686 213.888 121.76C213.905 122.6 213.637 122.868 212.797 122.864C203.923 122.843 195.05 122.843 186.176 122.864C185.229 122.864 185.073 122.468 185.066 121.652C185.021 116.262 185.011 110.869 184.852 105.481C184.677 99.8193 184.341 94.1593 184.072 88.4993C184.04 88.2894 183.993 88.0822 183.931 87.8791C182.359 88.3373 180.839 88.8019 179.308 89.2217C165.679 92.9595 152.046 96.6881 138.41 100.407C137.661 100.621 137.292 100.857 137.279 101.727C137.185 108.426 137.018 115.124 136.913 121.824C136.913 122.623 136.644 122.862 135.863 122.86C126.952 122.839 118.043 122.839 109.135 122.86C108.333 122.86 108.083 122.568 108.098 121.794C108.182 117.362 108.224 112.929 108.301 108.497C108.314 107.734 108.013 107.61 107.316 107.762C101.003 109.13 94.7 110.532 88.3622 111.811C79.4201 113.608 70.4658 115.344 61.4995 117.019C53.8232 118.44 46.1255 119.759 38.4193 121.032C32.3253 122.035 26.2206 122.996 20.0946 123.783C16.6114 124.23 13.1325 123.885 9.83102 122.504C2.76199 119.542 -0.575802 112.488 1.60307 105.123C3.04638 100.241 6.07199 96.3862 9.59795 92.8572C14.9436 87.4913 20.4153 82.2447 25.5556 76.6913C34.9967 66.4922 44.3173 56.1851 53.5174 45.7701C57.5416 41.2246 61.183 36.3445 64.9955 31.6115C65.2585 31.2961 65.4937 30.9168 65.8936 30.35ZM139.205 72.3312C139.746 72.2374 140.082 72.2076 140.405 72.1181C145.167 70.8203 149.95 69.5907 154.682 68.1949C163.098 65.7143 171.48 63.1273 179.883 60.6063C180.6 60.3932 181.019 60.1268 180.807 59.285C179.672 54.7949 178.722 50.2537 177.386 45.8212C175.957 41.0498 173.903 36.5363 170.543 32.7197C165.268 26.7336 157.16 26.578 151.727 32.3979C148.502 35.848 146.595 40.0291 145.028 44.3934C142.977 50.1472 141.671 56.0821 140.721 62.1001C140.193 65.4522 139.727 68.8043 139.205 72.3376V72.3312Z" fill="#FF5148"/>
</svg>
